<svg xmlns="http://www.w3.org/2000/svg" xmlns:xlink="http://www.w3.org/1999/xlink" version="1.1" width="1000" height="1000" viewBox="0 0 1000 1000" xml:space="preserve">
<desc>Created with Fabric.js 3.5.0</desc>
<defs>
</defs>
<rect x="0" y="0" width="100%" height="100%" fill="rgba(255,255,255,0)"/>
<g transform="matrix(24.1138 0 0 24.1138 499.9997 499.9996)" id="79873">
<path style="stroke: none; stroke-width: 1; stroke-dasharray: none; stroke-linecap: butt; stroke-dashoffset: 0; stroke-linejoin: miter; stroke-miterlimit: 4; is-custom-font: none; font-file-url: none; fill: rgb(226,52,40); fill-rule: nonzero; opacity: 1;" vector-effect="non-scaling-stroke" transform=" translate(-25.175, -24.4)" d="M 10.75 42 Q 9.6 42 8.8 41.2 Q 8 40.4 8 39.25 V 12.3 Q 8 11.15 8.8 10.35 Q 9.6 9.55 10.75 9.55 H 14.9 V 6.45 Q 14.9 6.05 15.15 5.8 Q 15.4 5.55 15.75 5.55 Q 16.15 5.55 16.425 5.8 Q 16.7 6.05 16.7 6.45 V 9.55 H 31.45 V 6.4 Q 31.45 6 31.7 5.775 Q 31.95 5.55 32.3 5.55 Q 32.65 5.55 32.9 5.775 Q 33.15 6 33.15 6.35 V 9.55 H 37.25 Q 38.4 9.55 39.2 10.35 Q 40 11.15 40 12.3 V 24.15 H 38.45 V 21 H 9.55 V 39.25 Q 9.55 39.75 9.9 40.1 Q 10.25 40.45 10.75 40.45 H 20.9 V 42 Z M 9.55 19.45 H 38.45 V 12.3 Q 38.45 11.75 38.1 11.425 Q 37.75 11.1 37.25 11.1 H 10.75 Q 10.25 11.1 9.9 11.425 Q 9.55 11.75 9.55 12.3 Z M 40.65 31.15 L 38.1 28.6 L 39.55 27.15 Q 39.8 26.9 40.125 26.9 Q 40.45 26.9 40.65 27.15 L 42.1 28.6 Q 42.35 28.85 42.35 29.15 Q 42.35 29.45 42.1 29.7 Z M 26 42.5 V 41.3 Q 26 41 26.1 40.75 Q 26.2 40.5 26.4 40.3 L 36.35 30.35 L 38.9 32.9 L 28.95 42.85 Q 28.75 43.05 28.475 43.15 Q 28.2 43.25 28 43.25 H 26.7 Q 26.4 43.25 26.2 43.05 Q 26 42.85 26 42.5 Z M 9.55 19.45 V 12.3 Q 9.55 11.75 9.55 11.425 Q 9.55 11.1 9.55 11.1 Q 9.55 11.1 9.55 11.425 Q 9.55 11.75 9.55 12.3 V 19.45 Z" stroke-linecap="round"/>
</g>
</svg>