<svg xmlns="http://www.w3.org/2000/svg" xmlns:xlink="http://www.w3.org/1999/xlink" version="1.1" width="1000" height="1000" viewBox="0 0 1000 1000" xml:space="preserve">
<desc>Created with Fabric.js 3.5.0</desc>
<defs>
</defs>
<rect x="0" y="0" width="100%" height="100%" fill="rgba(255,255,255,0)"/>
<g transform="matrix(22.3364 0 0 22.3364 500.0002 500.0002)" id="674246">
<path style="stroke: none; stroke-width: 1; stroke-dasharray: none; stroke-linecap: butt; stroke-dashoffset: 0; stroke-linejoin: miter; stroke-miterlimit: 4; is-custom-font: none; font-file-url: none; fill: rgb(226,52,40); fill-rule: nonzero; opacity: 1;" vector-effect="non-scaling-stroke" transform=" translate(-21.625, -25.9)" d="M 29.35 42 V 40.45 H 37.25 Q 37.7 40.45 38.075 40.075 Q 38.45 39.7 38.45 39.25 V 21 H 9.55 V 30.15 H 8 V 12.3 Q 8 11.15 8.8 10.35 Q 9.6 9.55 10.75 9.55 H 14.9 V 5.55 H 16.7 V 9.55 H 31.45 V 5.55 H 33.15 V 9.55 H 37.25 Q 38.4 9.55 39.2 10.35 Q 40 11.15 40 12.3 V 39.25 Q 40 40.4 39.2 41.2 Q 38.4 42 37.25 42 Z M 16 46.25 L 14.95 45.2 L 21.3 38.75 H 3.25 V 37.25 H 21.3 L 14.95 30.8 L 16 29.75 L 24.25 38 Z M 9.55 19.45 H 38.45 V 12.3 Q 38.45 11.85 38.075 11.475 Q 37.7 11.1 37.25 11.1 H 10.75 Q 10.3 11.1 9.925 11.475 Q 9.55 11.85 9.55 12.3 Z M 9.55 19.45 V 12.3 Q 9.55 11.75 9.55 11.425 Q 9.55 11.1 9.55 11.1 Q 9.55 11.1 9.55 11.425 Q 9.55 11.75 9.55 12.3 V 19.45 Z" stroke-linecap="round"/>
</g>
</svg>