<svg width="12" height="16" fill="none" xmlns="http://www.w3.org/2000/svg"><path d="M.75 14.25a.5.5 0 0 1-.5-.5V2.062C.25.925 1.175 0 2.313 0h8.937a.5.5 0 0 1 .5.5V12a.5.5 0 1 1-1 0V1H2.312c-.585 0-1.062.477-1.062 1.063V13.75a.5.5 0 0 1-.5.5Z" fill="#BEAD8E"/><path d="M11.25 16H2.5C1.26 16 .25 14.99.25 13.75S1.26 11.5 2.5 11.5h8.75a.5.5 0 1 1 0 1H2.5c-.69 0-1.25.56-1.25 1.25S1.81 15 2.5 15h8.75a.5.5 0 1 1 0 1Z" fill="#BEAD8E"/><path d="M11.25 14.25H2.5a.5.5 0 0 1 0-1h8.75a.5.5 0 1 1 0 1ZM3 12.5a.5.5 0 0 1-.5-.5V.5a.5.5 0 1 1 1 0V12a.5.5 0 0 1-.5.5Z" fill="#BEAD8E"/></svg>