<svg xmlns="http://www.w3.org/2000/svg" xmlns:xlink="http://www.w3.org/1999/xlink" version="1.1" width="1000" height="1000" viewBox="0 0 1000 1000" xml:space="preserve">
<desc>Created with Fabric.js 3.5.0</desc>
<defs>
</defs>
<rect x="0" y="0" width="100%" height="100%" fill="rgba(255,255,255,0)"/>
<g transform="matrix(25.2525 0 0 25.2525 499.9995 499.9995)" id="188638">
<path style="stroke: none; stroke-width: 1; stroke-dasharray: none; stroke-linecap: butt; stroke-dashoffset: 0; stroke-linejoin: miter; stroke-miterlimit: 4; is-custom-font: none; font-file-url: none; fill: rgb(226,52,40); fill-rule: nonzero; opacity: 1;" vector-effect="non-scaling-stroke" transform=" translate(-24, -24)" d="M 11.7 32.85 Q 12.1 32.85 12.375 32.6 Q 12.65 32.35 12.65 32 V 29.65 H 35.4 V 31.95 Q 35.4 32.35 35.65 32.6 Q 35.9 32.85 36.3 32.85 Q 36.7 32.85 36.975 32.6 Q 37.25 32.35 37.25 31.95 V 25.5 Q 37.25 24.8 36.7 23.925 Q 36.15 23.05 35.35 22.55 V 19.8 Q 35.35 18.45 34.5 17.625 Q 33.65 16.8 32.35 16.8 H 26.4 Q 25.5 16.8 24.9 17.15 Q 24.3 17.5 24 18.05 Q 23.65 17.5 23.05 17.15 Q 22.45 16.8 21.55 16.8 H 15.65 Q 14.35 16.8 13.5 17.625 Q 12.65 18.45 12.65 19.8 V 22.55 Q 11.85 23.05 11.3 23.925 Q 10.75 24.8 10.75 25.5 V 31.95 Q 10.75 32.35 11.025 32.6 Q 11.3 32.85 11.7 32.85 Z M 24.8 22.55 V 19.55 Q 24.8 19.05 25.15 18.7 Q 25.5 18.35 26 18.35 H 32.55 Q 33.05 18.35 33.425 18.7 Q 33.8 19.05 33.8 19.55 V 22.55 Z M 14.2 22.55 V 19.55 Q 14.2 19.05 14.575 18.7 Q 14.95 18.35 15.45 18.35 H 22 Q 22.5 18.35 22.875 18.7 Q 23.25 19.05 23.25 19.55 V 22.55 Z M 12.6 28.1 V 26.05 Q 12.6 25.2 13.175 24.625 Q 13.75 24.05 14.6 24.05 H 33.4 Q 34.25 24.05 34.825 24.625 Q 35.4 25.2 35.4 26.05 V 28.1 Z M 8.75 42 Q 7.6 42 6.8 41.2 Q 6 40.4 6 39.25 V 8.75 Q 6 7.6 6.8 6.8 Q 7.6 6 8.75 6 H 39.25 Q 40.4 6 41.2 6.8 Q 42 7.6 42 8.75 V 39.25 Q 42 40.4 41.2 41.2 Q 40.4 42 39.25 42 Z M 8.75 40.45 H 39.25 Q 39.75 40.45 40.1 40.1 Q 40.45 39.75 40.45 39.25 V 8.75 Q 40.45 8.25 40.1 7.9 Q 39.75 7.55 39.25 7.55 H 8.75 Q 8.25 7.55 7.9 7.9 Q 7.55 8.25 7.55 8.75 V 39.25 Q 7.55 39.75 7.9 40.1 Q 8.25 40.45 8.75 40.45 Z M 7.55 40.45 Q 7.55 40.45 7.55 40.1 Q 7.55 39.75 7.55 39.25 V 8.75 Q 7.55 8.25 7.55 7.9 Q 7.55 7.55 7.55 7.55 Q 7.55 7.55 7.55 7.9 Q 7.55 8.25 7.55 8.75 V 39.25 Q 7.55 39.75 7.55 40.1 Q 7.55 40.45 7.55 40.45 Z" stroke-linecap="round"/>
</g>
</svg>