<?xml version="1.0" standalone="no"?>
<!DOCTYPE svg PUBLIC "-//W3C//DTD SVG 20010904//EN"
 "http://www.w3.org/TR/2001/REC-SVG-20010904/DTD/svg10.dtd">
<svg version="1.0" xmlns="http://www.w3.org/2000/svg"
 width="157.000000pt" height="152.000000pt" viewBox="0 0 157.000000 152.000000"
 preserveAspectRatio="xMidYMid meet">

<g transform="translate(0.000000,152.000000) scale(0.100000,-0.100000)"
fill="#000000" stroke="none">
<path d="M727 1306 c-13 -28 -23 -35 -56 -41 -48 -8 -51 -22 -15 -56 22 -21
25 -30 20 -66 -3 -23 -1 -45 4 -48 5 -3 25 2 44 12 34 16 38 16 72 -1 45 -21
56 -12 45 36 -8 33 -6 40 20 64 40 38 36 51 -14 58 -37 6 -46 12 -60 41 -21
44 -39 44 -60 1z"/>
<path d="M493 1191 c-20 -16 -21 -22 -10 -45 9 -20 19 -26 43 -26 27 0 33 4
37 28 4 20 0 31 -16 44 -27 22 -27 22 -54 -1z"/>
<path d="M966 1190 c-14 -15 -16 -24 -9 -47 5 -15 13 -27 16 -25 4 1 18 2 31
2 34 0 45 45 17 71 -25 23 -31 23 -55 -1z"/>
<path d="M327 1096 c-12 -10 -15 -21 -11 -44 5 -26 10 -30 39 -30 29 0 34 4
39 30 6 30 -13 57 -39 57 -5 0 -18 -6 -28 -13z"/>
<path d="M1134 1094 c-19 -13 -20 -19 -11 -43 8 -23 16 -28 40 -27 20 1 33 8
38 21 12 31 10 45 -6 45 -8 0 -15 5 -15 10 0 14 -21 11 -46 -6z"/>
<path d="M546 989 l-26 -21 2 -376 3 -377 60 0 60 0 3 120 c2 80 7 122 15 127
19 12 185 10 193 -3 4 -6 6 -49 5 -95 -1 -46 1 -100 5 -119 l6 -36 62 3 61 3
0 378 0 379 -24 19 c-21 17 -41 19 -211 19 -175 0 -189 -1 -214 -21z m339
-189 c0 -12 -21 -16 -119 -18 -115 -3 -146 4 -131 27 4 8 47 11 128 9 101 -3
122 -6 122 -18z m-35 -180 c0 -19 -7 -20 -95 -20 -72 0 -95 3 -95 13 0 24 12
27 102 27 81 0 88 -2 88 -20z"/>
<path d="M317 720 l-27 -21 0 -224 0 -224 27 -21 c22 -17 38 -20 92 -18 l66 3
0 260 0 260 -66 3 c-54 2 -70 -1 -92 -18z m98 -210 c0 -48 -2 -55 -20 -55 -16
0 -21 8 -23 44 -4 54 3 73 25 69 15 -3 18 -14 18 -58z"/>
<path d="M1045 727 c-3 -7 -4 -125 -3 -262 l3 -250 73 0 c113 0 112 -3 112
262 0 214 0 214 -25 238 -21 22 -33 25 -90 25 -44 0 -67 -4 -70 -13z m93 -214
c-2 -44 -7 -58 -18 -58 -11 0 -16 13 -18 44 -4 52 2 71 23 71 13 0 15 -10 13
-57z"/>
<path d="M697 413 c-10 -9 -8 -176 2 -191 5 -9 25 -12 62 -10 l54 3 3 103 3
102 -59 0 c-32 0 -62 -3 -65 -7z"/>
</g>
</svg>
